<svg xmlns="http://www.w3.org/2000/svg" xml:space="preserve" viewBox="0 0 3000 3000"><path d="M1691 875c65.17 0 118 52.83 118 118s-52.83 118-118 118-118-52.83-118-118 52.83-118 118-118m0-192c-41.77 0-82.38 8.22-120.72 24.44-36.94 15.62-70.07 37.95-98.48 66.36s-50.73 61.54-66.36 98.48C1389.22 910.62 1381 951.23 1381 993s8.22 82.38 24.44 120.72c15.62 36.94 37.95 70.07 66.36 98.48s61.54 50.73 98.48 66.36c38.34 16.22 78.96 24.44 120.72 24.44s82.38-8.22 120.72-24.44c36.94-15.62 70.07-37.95 98.48-66.36s50.73-61.54 66.36-98.48c16.22-38.34 24.44-78.96 24.44-120.72s-8.22-82.38-24.44-120.72c-15.62-36.94-37.95-70.07-66.36-98.48s-61.54-50.73-98.48-66.36C1773.38 691.22 1732.77 683 1691 683z"/><path d="M2976.26 461.91c-15.1-35.7-36.67-67.72-64.13-95.17-27.45-27.45-59.47-49.03-95.17-64.13-37.06-15.67-76.31-23.62-116.67-23.62H299.59c-40.36 0-79.61 7.95-116.67 23.62-35.7 15.1-67.72 36.67-95.17 64.13s-49.03 59.47-64.13 95.17C7.95 498.97 0 538.22 0 578.58v1842.84c0 40.36 7.95 79.61 23.62 116.67 15.1 35.7 36.67 67.72 64.13 95.17s59.47 49.03 95.17 64.13c37.06 15.68 76.31 23.62 116.67 23.62h2400.7c40.36 0 79.61-7.95 116.67-23.62 35.7-15.1 67.72-36.67 95.17-64.13 27.45-27.45 49.03-59.47 64.13-95.17 15.67-37.06 23.62-76.31 23.62-116.67V578.58c.01-40.36-7.94-79.61-23.62-116.67zm-2676.67 9.08h2400.7c59.42 0 107.59 48.17 107.59 107.59v1395.97l-481.06-481.06c-86.46-86.46-226.64-86.46-313.1 0l-275.45 275.45-658.45-658.45c-86.46-86.46-226.64-86.46-313.1 0L192 1685.24V578.58c0-59.42 48.17-107.59 107.59-107.59zm2400.7 2058.02H299.59c-59.42 0-107.59-48.17-107.59-107.59v-464.65l668.84-668.84c34.49-34.49 90.4-34.49 124.89 0l944.79 944.79c37.49 37.49 98.27 37.49 135.77 0 37.49-37.49 37.49-98.27 0-135.76l-192.24-192.24 233.79-233.79c34.49-34.49 90.4-34.49 124.89 0l575.16 575.17v175.32c0 59.42-48.17 107.59-107.6 107.59z"/></svg>