<svg xmlns="http://www.w3.org/2000/svg" viewBox="0 0 3000 3000" xml:space="preserve"><path d="M2462.61 2596.93 403.57 537.88c-37.23-37.23-37.23-97.58 0-134.81 37.23-37.23 97.58-37.23 134.81 0l2059.04 2059.04c37.23 37.23 37.23 97.58 0 134.81-37.22 37.24-97.58 37.24-134.81.01z"/><path d="M1501 1127.37c205.8 0 372.63 166.83 372.63 372.63 0 136.31-73.19 255.52-182.41 320.48l138.47 138.47a567.925 567.925 0 0 0 70.47-59.8c25.5-25.5 48.65-53.56 68.82-83.41 20.39-30.19 37.92-62.47 52.08-95.96 29.49-69.72 44.44-143.66 44.44-219.79s-14.95-150.07-44.44-219.79a565.293 565.293 0 0 0-52.08-95.96 567.858 567.858 0 0 0-68.82-83.41 567.858 567.858 0 0 0-83.41-68.82c-30.19-20.39-62.47-37.92-95.96-52.08-69.72-29.49-143.66-44.44-219.79-44.44s-150.07 14.95-219.79 44.44a565.293 565.293 0 0 0-95.96 52.08 567.858 567.858 0 0 0-83.41 68.82 567.925 567.925 0 0 0-59.8 70.47l138.47 138.47c64.97-109.21 184.18-182.4 320.49-182.4zM1129.44 1528.33l-173.95-173.95c-12.61 47.24-18.98 95.97-18.98 145.63 0 76.12 14.95 150.07 44.44 219.79a565.293 565.293 0 0 0 52.08 95.96 567.858 567.858 0 0 0 68.82 83.41c25.5 25.5 53.56 48.65 83.41 68.82 30.19 20.39 62.47 37.92 95.96 52.08 69.72 29.49 143.66 44.44 219.79 44.44 49.66 0 98.39-6.37 145.63-18.98l-173.95-173.95c-183.23-13.79-329.48-160.04-343.25-343.25z"/><path d="M1501 2250.3c-837.15 0-1295.61-750.3-1295.61-750.3s147.66-248.99 435.81-459.91L504.08 902.97c-32.33 24.45-64.12 50.13-95.33 77.01-54.85 47.24-108.05 98.38-158.11 151.99-40.07 42.91-78.3 87.57-113.64 132.73-60.82 77.73-93.16 131.56-96.64 137.44l-21.16 35.68c-23.23 39.17-22.91 87.97.84 126.83l21.63 35.39c3.57 5.84 36.67 59.33 98.39 136.78 35.91 45.06 74.65 89.61 115.14 132.42 50.61 53.51 104.22 104.55 159.34 151.71 141.68 121.21 294.4 218.07 453.92 287.89 202.13 88.47 414.95 133.33 632.55 133.33 160.03 0 317.47-24.27 469.98-72.3l-155.93-155.93c-97.86 23.06-202.6 36.36-314.06 36.36zM2982.8 1437.81l-21.16-35.68c-3.49-5.88-35.83-59.7-96.64-137.44-35.33-45.17-73.57-89.82-113.64-132.73-50.06-53.61-103.26-104.75-158.11-151.99-140.88-121.34-293.66-218.27-454.09-288.11-202.77-88.27-417.47-133.02-638.16-133.02s-435.39 44.76-638.16 133.02c-67.45 29.36-133.54 63.53-197.97 102.28L805.2 934.47c188.71-105.72 421.06-183.76 695.8-183.76 851.29 0 1295.61 749.29 1295.61 749.29s-271.15 443.75-777.16 648.72l145.82 145.82c148.05-68.52 289.93-160.45 422.19-273.59 55.12-47.16 108.73-98.2 159.34-151.71 40.49-42.81 79.23-87.37 115.14-132.42 61.73-77.45 94.82-130.93 98.39-136.78l21.63-35.39c23.75-38.86 24.07-87.67.84-126.84z"/></svg>