<svg xmlns="http://www.w3.org/2000/svg" xml:space="preserve" viewBox="0 0 3000 3000"><path d="M2893.96 2787.92H2342.5c89.67-62.34 172.56-134.18 246.97-214.14 86.43-92.87 161.18-196.41 222.19-307.74 61.01-111.34 108.04-230.04 139.77-352.8a1527.405 1527.405 0 0 0 48.57-381.99c0-103.31-10.59-206.77-31.47-307.5-20.34-98.11-50.66-194.73-90.12-287.18-38.67-90.59-86.48-178.03-142.1-259.91-55.01-80.97-118.12-157.17-187.57-226.49-69.44-69.3-145.79-132.28-226.91-187.16-82.01-55.49-169.59-103.18-260.32-141.75-92.57-39.36-189.32-69.6-287.56-89.88C1673.1 10.56 1569.52 0 1466.09 0c-9.08 0-18.17.08-27.28.24-61.77 1.11-109.61 54.38-103.93 115.89 5.15 55.78 52.77 97.99 108.76 96.33 8.2-.24 15.86-.39 22.45-.39 725.14 0 1321.83 595.49 1321.83 1319.17 0 449.04-229.74 868.31-608.55 1110.62l-.06.26-50.81 26.33v-645.99c0-58.56-47.47-106.04-106.04-106.04-58.56 0-106.04 47.47-106.04 106.04v871.5c0 58.56 47.47 106.04 106.04 106.04h871.5c58.56 0 106.04-47.48 106.04-106.04 0-58.56-47.47-106.04-106.04-106.04zM106.04 212.08H657.5c-89.67 62.34-172.56 134.18-246.97 214.14-86.43 92.87-161.18 196.41-222.19 307.74C127.32 845.31 80.3 964.01 48.57 1086.77A1527.405 1527.405 0 0 0 0 1468.76c0 103.31 10.59 206.77 31.47 307.5 20.34 98.11 50.66 194.73 90.12 287.18 38.67 90.59 86.48 178.03 142.1 259.91 55.01 80.97 118.12 157.17 187.57 226.49 69.44 69.3 145.79 132.28 226.91 187.16 82.01 55.49 169.59 103.18 260.32 141.75 92.57 39.36 189.32 69.6 287.56 89.88 100.86 20.82 204.44 31.38 307.87 31.38 9.08 0 18.17-.08 27.28-.24 61.77-1.11 109.61-54.38 103.93-115.89-5.15-55.78-52.77-97.99-108.76-96.33-8.2.24-15.86.39-22.45.39-725.14 0-1321.83-595.49-1321.83-1319.17 0-449.04 229.74-868.31 608.55-1110.62l.07-.26 50.81-26.33v645.99c0 58.56 47.47 106.04 106.04 106.04 58.56 0 106.04-47.47 106.04-106.04V106.04C1083.58 47.48 1036.1 0 977.54 0h-871.5C47.47 0 0 47.48 0 106.04c0 58.56 47.47 106.04 106.04 106.04z"/></svg>